<svg width="474" height="71" viewBox="0 0 474 71" fill="none" xmlns="http://www.w3.org/2000/svg">
<path d="M18.3321 55.5043L38.4269 55.5043L38.4269 69.9859H0.347656L0.347656 1.92233L18.3321 1.92233L18.3321 55.5043Z" fill="#2D2D2D"/>
<path d="M68.9097 1.92233L68.9097 69.9859H50.9253L50.9253 1.92233L68.9097 1.92233Z" fill="#2D2D2D"/>
<path d="M144.574 69.9859L126.59 69.9859L102.641 31.9476L102.641 69.9859H84.6568L84.6568 1.92233L102.641 1.92233L126.59 40.4434V1.92233L144.574 1.92233V69.9859Z" fill="#2D2D2D"/>
<path d="M191.338 70.6618C185.282 70.6618 179.716 69.1814 174.638 66.2207C169.561 63.1957 165.524 59.0443 162.526 53.7665C159.59 48.4244 158.122 42.4065 158.122 35.7128C158.122 29.019 159.59 23.0333 162.526 17.7556C165.524 12.4135 169.561 8.26206 174.638 5.30138C179.716 2.34069 185.282 0.860352 191.338 0.860352C197.455 0.860352 203.022 2.34069 208.038 5.30138C213.115 8.26206 217.122 12.4135 220.058 17.7556C222.994 23.0333 224.463 29.019 224.463 35.7128C224.463 42.4065 222.994 48.4244 220.058 53.7665C217.122 59.0443 213.115 63.1957 208.038 66.2207C202.961 69.1814 197.394 70.6618 191.338 70.6618ZM191.338 53.0907C195.926 53.0907 199.535 51.5138 202.166 48.3601C204.857 45.2063 206.203 40.9905 206.203 35.7128C206.203 30.3063 204.857 26.0584 202.166 22.969C199.535 19.8152 195.926 18.2383 191.338 18.2383C186.689 18.2383 183.049 19.8152 180.419 22.969C177.789 26.0584 176.474 30.3063 176.474 35.7128C176.474 41.0549 177.789 45.3028 180.419 48.4566C183.049 51.546 186.689 53.0907 191.338 53.0907Z" fill="#2D2D2D"/>
<path d="M286.776 1.92233V16.9832L269.525 16.9832V69.9859H251.541V16.9832H234.474V1.92233L286.776 1.92233Z" fill="#2D2D2D"/>
<path d="M357.751 1.92233L334.996 48.3601V69.9859H316.92V48.3601L294.164 1.92233L314.717 1.92233L326.095 28.1823L337.473 1.92233L357.751 1.92233Z" fill="#2D2D2D"/>
<path d="M419.887 24.6102C419.887 28.7294 418.969 32.4946 417.134 35.9059C415.36 39.2527 412.638 41.956 408.968 44.0156C405.359 46.0108 400.924 47.0084 395.663 47.0084H386.763V69.9859H368.778V1.92233L395.663 1.92233C400.863 1.92233 405.267 2.88778 408.876 4.81866C412.546 6.74954 415.299 9.42059 417.134 12.8318C418.969 16.243 419.887 20.1692 419.887 24.6102ZM393.92 31.9476C398.997 31.9476 401.535 29.5018 401.535 24.6102C401.535 19.6543 398.997 17.1763 393.92 17.1763L386.763 17.1763V31.9476L393.92 31.9476Z" fill="#2D2D2D"/>
<path d="M450.602 17.0798V28.1823L471.247 28.1823V42.5674L450.602 42.5674V54.8285L474 54.8285V69.9859H432.617V1.92233L474 1.92233V17.0798L450.602 17.0798Z" fill="#2D2D2D"/>
</svg>
